<svg xmlns="http://www.w3.org/2000/svg" width="50" height="50" viewBox="0 0 50 50"><path fill="#b0b0b0" d="M20.8 29.1c0 2.2-1.5 2.9-3.5 2.9h-5v-5.9h5.1c2.1 0 3.4.8 3.4 3zm-.8-9.2c0-1.9-1.6-2.4-3.3-2.4h-4.4v5h4.8c1.7 0 2.9-.7 2.9-2.6zm14.7 2.6a3.3 3.3 0 0 0-3.5 3.1v.2h6.9c-.2-2-1.2-3.3-3.4-3.3zM50 5.4v39.2a5.4 5.4 0 0 1-5.4 5.4H5.4A5.4 5.4 0 0 1 0 44.6V5.4A5.4 5.4 0 0 1 5.4 0h39.2A5.4 5.4 0 0 1 50 5.4zM30.3 17.1H39V15h-8.7zm-4.8 12.3c0-2.7-1.2-5-3.9-5.8 1.9-.9 2.9-1.9 2.9-4.1 0-4.3-3.1-5.3-6.8-5.3H7.6v21.4H18c3.9 0 7.5-1.9 7.5-6.2zm16.9-1.7c0-4.6-2.7-8.4-7.5-8.4a7.8 7.8 0 0 0-8 8.2c0 4.9 3.1 8.2 8 8.2s6.1-1.7 7.2-5.2h-3.7c-.4 1.3-2.1 2-3.4 2s-3.8-1.5-3.8-4h11.2v-.8z"/></svg>