<svg xmlns="http://www.w3.org/2000/svg"><symbol id="linkedin" viewBox="0 0 50 50"><path fill="#b0b0b0" d="M46.4 0H3.6A3.6 3.6 0 0 0 0 3.6v42.8A3.6 3.6 0 0 0 3.6 50h42.8a3.6 3.6 0 0 0 3.6-3.6V3.6A3.6 3.6 0 0 0 46.4 0zM15.1 42.9H7.7V19h7.4v23.9zm-3.7-27.2a4.3 4.3 0 0 1-4.3-4.3 4.3 4.3 0 1 1 8.6 0 4.3 4.3 0 0 1-4.3 4.3zm31.5 27.2h-7.4V31.2c0-2.7-.1-6.3-3.9-6.3s-4.4 3-4.4 6.1v11.9h-7.4V19h7.1v3.3h.1a7.7 7.7 0 0 1 7-3.9c7.5 0 8.9 4.9 8.9 11.4z"/></symbol><symbol id="dribbble" viewBox="0 0 50 50"><path fill="#b0b0b0" d="M25 0a25 25 0 1 0 25 25A25 25 0 0 0 25 0zm16.5 11.5a21.8 21.8 0 0 1 4.9 13.3 53.3 53.3 0 0 0-14.9-.7c-.6-1.4-1.1-2.6-1.9-4.2 7.9-3.2 11.5-7.8 11.9-8.4zm-2.3-2.4c-.4.5-3.6 4.8-11.2 7.7a115.4 115.4 0 0 0-8-12.5 21.1 21.1 0 0 1 19.2 4.8zM15.9 5.7a123.7 123.7 0 0 1 7.9 12.4 86.5 86.5 0 0 1-19.7 2.6 21.7 21.7 0 0 1 11.8-15zM3.6 25a1.3 1.3 0 0 1 .1-.6 77.3 77.3 0 0 0 21.9-3.1c.6 1.2 1.2 2.5 1.7 3.7-7.7 2.1-14.7 8.4-18.2 14.3A21.5 21.5 0 0 1 3.6 25zm8.3 16.9c2.2-4.6 8.3-10.5 16.9-13.4a90.5 90.5 0 0 1 4.5 16.2 21.5 21.5 0 0 1-21.4-2.8zm25 .8a92.5 92.5 0 0 0-4.1-15.2 33.2 33.2 0 0 1 13.3.9 21.4 21.4 0 0 1-9.2 14.3z"/></symbol><symbol id="behance" viewBox="0 0 50 50"><path fill="#b0b0b0" d="M20.8 29.1c0 2.2-1.5 2.9-3.5 2.9h-5v-5.9h5.1c2.1 0 3.4.8 3.4 3zm-.8-9.2c0-1.9-1.6-2.4-3.3-2.4h-4.4v5h4.8c1.7 0 2.9-.7 2.9-2.6zm14.7 2.6a3.3 3.3 0 0 0-3.5 3.1v.2h6.9c-.2-2-1.2-3.3-3.4-3.3zM50 5.4v39.2a5.4 5.4 0 0 1-5.4 5.4H5.4A5.4 5.4 0 0 1 0 44.6V5.4A5.4 5.4 0 0 1 5.4 0h39.2A5.4 5.4 0 0 1 50 5.4zM30.3 17.1H39V15h-8.7zm-4.8 12.3c0-2.7-1.2-5-3.9-5.8 1.9-.9 2.9-1.9 2.9-4.1 0-4.3-3.1-5.3-6.8-5.3H7.6v21.4H18c3.9 0 7.5-1.9 7.5-6.2zm16.9-1.7c0-4.6-2.7-8.4-7.5-8.4a7.8 7.8 0 0 0-8 8.2c0 4.9 3.1 8.2 8 8.2s6.1-1.7 7.2-5.2h-3.7c-.4 1.3-2.1 2-3.4 2s-3.8-1.5-3.8-4h11.2v-.8z"/></symbol><symbol id="instagram" viewBox="0 0 50 50"><path fill="#b0b0b0" d="M25 12.2A12.8 12.8 0 1 0 37.8 25 12.8 12.8 0 0 0 25 12.2zm0 21.1a8.3 8.3 0 1 1 8.3-8.3 8.3 8.3 0 0 1-8.3 8.3zm16.3-21.6a3 3 0 1 1 0-.1zm8.5 3c-.2-4-1.1-7.6-4-10.5S39.3.4 35.3.2 18.8-.1 14.7.2s-7.6 1.1-10.5 4-3.8 6.5-4 10.5-.3 16.5 0 20.6 1.1 7.6 4 10.5 6.5 3.8 10.5 4 16.5.3 20.6 0 7.6-1.1 10.5-4 3.8-6.5 4-10.5.3-16.5 0-20.6zm-5.3 25a8.7 8.7 0 0 1-4.8 4.8c-3.3 1.3-11.1 1-14.7 1s-11.5.3-14.7-1a8.7 8.7 0 0 1-4.8-4.8c-1.3-3.3-1-11.1-1-14.7s-.3-11.5 1-14.7a8.7 8.7 0 0 1 4.8-4.8c3.3-1.3 11.1-1 14.7-1s11.5-.3 14.7 1a8.7 8.7 0 0 1 4.8 4.8c1.3 3.3 1 11.1 1 14.7s.3 11.5-1 14.7z"/></symbol></svg>